<svg width="216" height="216" viewBox="0 0 216 216" fill="none" xmlns="http://www.w3.org/2000/svg">
<rect x="0.289062" width="215.289" height="215.289" rx="107.644" fill="#003049"/>
<path d="M76.6211 92.2211C76.6211 85.9102 81.7371 80.7942 88.048 80.7942C94.3589 80.7942 99.4749 85.9102 99.4749 92.2211C99.4749 98.532 94.3589 103.648 88.048 103.648C81.7371 103.648 76.6211 98.532 76.6211 92.2211Z" fill="#669BBC"/>
<path d="M166.783 89.4807C119.601 89.4807 79.943 121.697 68.6075 165.332C65.0182 179.149 76.928 190.908 91.2035 190.908C91.2035 158.061 112.158 130.107 141.429 119.686C154.877 114.899 166.783 103.756 166.783 89.4807Z" fill="#669BBC"/>
<path d="M86.633 63.4831L166.821 80.7015C169.603 67.1288 160.91 53.8548 147.357 50.9789L67.3828 34.0085C64.6277 47.4506 73.2173 60.6024 86.633 63.4831Z" fill="#669BBC"/>
</svg>
