<svg width="785" height="271" viewBox="0 0 785 271" fill="none" xmlns="http://www.w3.org/2000/svg">
<path d="M10.4376 243.683C9.23324 243.683 8.43035 242.88 8.43035 241.676V151.217C8.43035 150.013 9.23324 149.21 10.4376 149.21H84.1697C85.374 149.21 86.1769 150.013 86.1769 151.217V155.499C86.1769 156.704 85.374 157.506 84.1697 157.506H16.8607V191.094H64.2312C65.4356 191.094 66.2385 191.897 66.2385 193.101V197.25C66.2385 198.454 65.4356 199.257 64.2312 199.257H16.8607V241.676C16.8607 242.88 16.0578 243.683 14.8535 243.683H10.4376ZM159.569 170.62C159.569 169.416 160.372 168.613 161.576 168.613H165.859C167.063 168.613 167.866 169.416 167.866 170.62V241.81C167.866 243.014 167.063 243.817 165.859 243.817H161.576C160.372 243.817 159.569 243.014 159.569 241.81V232.577C157.027 240.204 150.871 243.817 136.821 243.817H121.833C98.8172 243.817 94.1337 234.584 94.1337 214.11V170.487C94.1337 169.282 94.9366 168.479 96.1409 168.479H100.423C101.627 168.479 102.43 169.282 102.43 170.487V214.512C102.43 232.175 105.776 235.788 121.967 235.788H140.032C153.414 235.788 159.569 232.978 159.569 214.512V170.62ZM219.527 243.683C195.306 243.683 189.82 234.049 189.82 215.315V176.374H179.115C177.91 176.374 177.107 175.571 177.107 174.367V170.487C177.107 169.282 177.776 168.479 179.115 168.479C191.426 168.479 192.095 167.676 192.095 151.351C192.095 150.013 192.898 149.21 194.102 149.21H195.975C197.18 149.21 197.983 150.013 197.983 151.217V168.479H231.972C233.176 168.479 233.979 169.282 233.979 170.487V174.367C233.979 175.571 233.176 176.374 231.972 176.374H197.983V215.716C197.983 231.239 202.666 235.788 219.527 235.788H231.972C233.176 235.788 233.979 236.591 233.979 237.795V241.676C233.979 242.88 233.176 243.683 231.972 243.683H219.527ZM310.895 170.62C310.895 169.416 311.698 168.613 312.902 168.613H317.185C318.389 168.613 319.192 169.416 319.192 170.62V241.81C319.192 243.014 318.389 243.817 317.185 243.817H312.902C311.698 243.817 310.895 243.014 310.895 241.81V232.577C308.353 240.204 302.197 243.817 288.147 243.817H273.159C250.143 243.817 245.46 234.584 245.46 214.11V170.487C245.46 169.282 246.263 168.479 247.467 168.479H251.749C252.953 168.479 253.756 169.282 253.756 170.487V214.512C253.756 232.175 257.102 235.788 273.293 235.788H291.358C304.74 235.788 310.895 232.978 310.895 214.512V170.62ZM365.5 168.479H379.685C380.889 168.479 381.692 169.282 381.692 170.487V174.501C381.692 175.705 380.889 176.508 379.685 176.508H362.289C348.773 176.508 342.752 179.318 342.752 197.785V241.676C342.752 242.88 341.949 243.683 340.744 243.683H336.462C335.258 243.683 334.455 242.88 334.455 241.676V170.487C334.455 169.282 335.258 168.479 336.462 168.479H340.744C341.949 168.479 342.752 169.282 342.752 170.487V179.72C345.294 172.092 351.45 168.479 365.5 168.479ZM413.474 243.683C390.458 243.683 385.774 234.584 385.774 213.976V197.785C385.774 177.713 390.458 168.479 413.474 168.479H435.687C458.703 168.479 463.387 177.713 463.387 197.785V213.976C463.387 234.584 458.703 243.683 435.687 243.683H413.474ZM413.608 235.654H435.553C451.745 235.654 455.09 232.041 455.09 214.378V197.383C455.09 180.255 451.611 176.508 435.553 176.508H413.608C397.55 176.508 394.071 180.255 394.071 197.383V214.378C394.071 232.041 397.416 235.654 413.608 235.654ZM562.132 243.683C560.259 243.683 558.92 242.88 558.118 241.141L551.828 227.358H497.767L491.344 241.141C490.541 242.747 489.203 243.683 487.329 243.683H473.814C471.272 243.683 470.201 242.078 471.272 239.803L513.825 151.619C514.628 150.013 515.832 149.21 517.705 149.21H531.89C533.763 149.21 534.968 150.013 535.77 151.619L578.19 239.803C579.26 242.078 578.19 243.683 575.647 243.683H562.132ZM504.725 212.103H544.87L524.931 168.613L504.725 212.103ZM615.352 243.683C593.138 243.683 583.638 231.105 583.638 211.166V181.861C583.638 161.789 593.138 149.21 615.352 149.21H645.192C667.406 149.21 676.907 161.789 676.907 181.861V182.262C676.907 184.403 675.702 185.608 673.561 185.608H661.652C659.511 185.608 658.306 184.671 658.306 183.333V181.192C658.306 169.55 654.426 167.007 645.192 167.007H615.352C606.118 167.007 602.238 169.55 602.238 181.192V211.835C602.238 223.343 606.386 225.886 615.352 225.886H645.192C654.158 225.886 658.306 223.343 658.306 211.835V209.293C658.306 207.152 659.511 205.948 661.652 205.948H673.561C675.702 205.948 676.907 206.884 676.907 208.49V211.166C676.907 231.105 667.406 243.683 645.192 243.683H615.352ZM719.876 243.683C698.599 243.683 689.232 234.182 688.296 215.315C688.162 213.04 689.366 211.835 691.507 211.835H703.417C705.558 211.835 706.628 213.04 706.762 215.181C707.565 222.942 711.178 225.886 719.876 225.886H746.104C756.274 225.886 759.887 223.343 759.887 215.582C759.887 208.089 756.407 206.081 747.442 205.412L717.601 203.137C696.994 201.532 688.831 194.841 688.831 177.177C688.831 159.112 697.529 149.21 720.813 149.21H745.301C766.444 149.21 775.944 158.711 776.881 177.579C777.015 179.854 775.811 181.058 773.67 181.058H761.626C759.485 181.058 758.415 179.854 758.281 177.713C757.478 169.951 753.865 167.007 745.301 167.007H721.08C710.776 167.007 707.163 169.416 707.163 177.311C707.163 184.671 710.643 186.544 719.608 187.213L749.449 189.488C769.789 191.094 778.353 198.186 778.353 215.716C778.353 233.781 769.655 243.683 746.237 243.683H719.876Z" fill="#003049"/>
<path d="M360.492 45.4152C360.492 40.4917 364.483 36.5004 369.407 36.5004V36.5004C374.331 36.5004 378.322 40.4917 378.322 45.4152V45.4152C378.322 50.3387 374.331 54.33 369.407 54.33V54.33C364.483 54.33 360.492 50.3387 360.492 45.4152V45.4152Z" fill="#003049"/>
<path d="M430.833 43.2773C394.023 43.2773 363.084 68.4113 354.24 102.454C351.44 113.233 360.732 122.407 371.869 122.407C371.869 96.7807 388.217 74.9726 411.052 66.8427C421.545 63.1074 430.833 54.4145 430.833 43.2773Z" fill="#003049"/>
<path d="M368.303 22.9951L430.863 36.4282C433.033 25.8394 426.252 15.4835 415.678 13.2398L353.285 0.000244141C351.136 10.4872 357.837 20.7477 368.303 22.9951Z" fill="#003049"/>
</svg>
